<svg width="92" height="92" viewBox="0 0 92 92" fill="none" xmlns="http://www.w3.org/2000/svg">
<path d="M56.4267 0C59.1365 5.53117e-07 61.3333 2.19679 61.3333 4.90667V30.6667H87.0933C89.8032 30.6667 92 32.8635 92 35.5733V56.4267C92 59.1365 89.8032 61.3333 87.0933 61.3333H61.3333V87.0933C61.3333 89.8032 59.1365 92 56.4267 92H35.5733C32.8635 92 30.6667 89.8032 30.6667 87.0933V61.3333H4.90667C2.19679 61.3333 0 59.1365 0 56.4267V35.5733C4.34665e-07 32.8635 2.19679 30.6667 4.90667 30.6667H30.6667V4.90667C30.6667 2.19679 32.8635 -1.18452e-07 35.5733 0H56.4267Z" fill="white"/>
</svg>
